<svg width="512" height="512" xmlns="http://www.w3.org/2000/svg" version="1.1">
 <metadata id="metadata106">image/svg+xml</metadata>

 <g>
  <title>Layer 1</title>
  <metadata stroke="null" id="svg_53">image/svg+xml</metadata>

  <g stroke="null" id="svg_4">
   <path stroke="null" fill-rule="evenodd" fill="#0059a1" d="m457.28168,372.17988l0,11.24764c2.1175,0.12312 4.23623,0.21826 6.35505,0.27825c2.92435,0.08274 5.86098,0.16448 8.78664,0.16448c2.29828,0 4.61772,-0.10099 6.89933,-0.39309c1.25204,-0.16053 2.61719,-0.46531 3.74479,-1.06803c0.56533,-0.30253 0.98859,-0.67539 1.31856,-1.23494c0.38982,-0.66091 0.46152,-2.05628 0.46152,-2.7948c0,-1.01838 -0.10917,-2.31097 -0.58605,-3.2298c-0.37876,-0.72952 -0.87547,-1.27685 -1.55349,-1.72453c-1.04923,-0.69292 -2.34839,-1.087 -3.56489,-1.321c-2.09986,-0.40298 -4.25958,-0.55272 -6.39376,-0.55272c-1.19886,0 -2.39947,0.02608 -3.59789,0.05396c-1.68679,0.04047 -3.37393,0.11808 -5.05852,0.21413c-2.11706,0.12042 -4.23448,0.23175 -6.35198,0.33634c-0.15314,0.00899 -0.30619,0.01529 -0.45932,0.02428l0,-0.00018zm0,-21.18444c1.9534,-0.13211 3.90723,-0.25559 5.86186,-0.36701c1.88477,-0.10729 3.7713,-0.18976 5.65817,-0.23121c1.4602,-0.03238 2.92171,-0.05756 4.38235,-0.05756c3.95251,0 7.92434,0.34938 11.78979,1.21416c3.76506,0.84302 7.3533,2.29973 10.53758,4.54361c3.30091,2.32545 5.84343,5.41648 7.61508,9.0981c1.94945,4.05087 2.63747,8.58999 2.63747,13.07271c0,4.52202 -0.69329,9.14855 -2.77604,13.18593c-1.88784,3.65994 -4.59701,6.62606 -8.07484,8.73244c-3.32294,2.01258 -7.02245,3.21766 -10.81788,3.85878c-3.92259,0.6628 -7.91644,0.92557 -11.88958,0.92557c-1.72198,0 -3.44528,-0.02698 -5.16682,-0.05666c-2.44475,-0.04317 -4.89003,-0.12447 -7.33346,-0.22771c-2.83676,-0.11952 -5.67221,-0.27321 -8.50599,-0.45263c-2.91504,-0.18445 -5.82886,-0.39003 -8.74083,-0.61945l-6.09336,-0.48023l0,-75.63085l20.9165,0l0,23.49226l0,-0.00027z" id="svg_12"/>
   <path stroke="null" fill-rule="evenodd" fill="#0059a1" d="m283.66749,355.12968l32.76869,0c-0.10645,-0.31197 -0.22176,-0.6172 -0.34673,-0.91334c-0.62422,-1.47928 -1.48521,-2.89579 -2.72812,-3.91022c-1.31189,-1.07072 -2.88907,-1.71409 -4.51118,-2.10278c-2.59833,-0.62215 -5.34716,-0.82503 -8.00972,-0.82503c-2.64142,0 -5.28204,0.21143 -7.88432,0.67808c-1.91733,0.34399 -3.71452,1.01623 -5.34409,2.11222c-1.53234,1.03017 -2.66432,2.4697 -3.53716,4.10627c-0.14647,0.27456 -0.28197,0.56 -0.40737,0.8548zm0.29258,20.9892c0.78569,1.72947 1.88556,3.2745 3.42632,4.42373c4.08003,3.04454 9.85439,3.77317 14.75846,3.77317c1.53321,0 3.07441,-0.05216 4.60675,-0.10738c2.20236,-0.07914 4.40429,-0.21278 6.60271,-0.376c2.51083,-0.18616 5.01763,-0.44228 7.51696,-0.74931c2.42281,-0.29794 4.83676,-0.68573 7.22701,-1.19024l7.37006,-1.55626l1.5319,21.66854l-6.09327,0.8923c-2.6982,0.39534 -5.40438,0.73618 -8.11486,1.03241c-2.64896,0.28985 -5.30091,0.55632 -7.95514,0.79302c-2.43422,0.21682 -4.87204,0.39543 -7.3124,0.51845c-2.00746,0.10144 -4.02158,0.17492 -6.03167,0.17492c-5.23062,0 -10.47387,-0.59058 -15.52055,-2.02966c-4.92434,-1.40437 -9.44263,-3.76228 -13.29212,-7.22617c-3.95295,-3.55715 -6.78445,-8.03232 -8.69432,-13.03305c-2.16981,-5.6834 -2.89969,-11.93436 -2.89969,-18.0041c0,-6.32767 0.76288,-12.99933 3.28205,-18.83327c2.11127,-4.88984 5.11837,-9.23156 9.2407,-12.55111c3.90671,-3.14598 8.38322,-5.23113 13.22612,-6.3488c4.66695,-1.07756 9.44219,-1.5577 14.2227,-1.5577c4.91021,0 9.86536,0.49642 14.62164,1.78352c4.72943,1.28044 9.01455,3.57163 12.59795,6.99541c3.72066,3.5549 6.24817,8.04626 7.8852,12.94959c1.90364,5.70148 2.47555,12.01152 2.47555,18.00779l0,10.55022l-54.67807,0z" id="svg_11"/>
   <path stroke="null" fill-rule="evenodd" fill="#0059a1" d="m404.14735,348.49238l-22.8562,0l-1.34664,30.63678c-0.16849,3.82596 -0.59965,7.89077 -1.81834,11.52769c-1.03694,3.09553 -2.56138,6.04636 -4.83632,8.37811c-2.14129,2.19478 -4.72153,3.74385 -7.64895,4.54001c-2.41491,0.6565 -4.90284,0.9504 -7.39911,0.9504c-1.13242,0 -2.2666,-0.08094 -3.39157,-0.20873c-1.06731,-0.12123 -2.13286,-0.26053 -3.19578,-0.41656l-6.1117,-0.89626l1.53716,-20.80205l6.92653,0.94806c0.64449,0.08813 1.30969,0.18715 1.95822,0.24255c0.21378,0.01889 0.43159,0.03238 0.64669,0.03238c0.51347,0 1.05546,-0.02788 1.57288,-0.11583c0.10294,-0.22501 0.19579,-0.50092 0.24985,-0.67044c0.39728,-1.25284 0.53541,-2.91558 0.6093,-4.16176l2.11399,-50.97361l63.90649,0l0,76.35363l-20.9165,0l0,-55.36443l0,0.00009z" id="svg_10"/>
   <path stroke="null" fill-rule="evenodd" fill="#0059a1" d="m209.49213,355.12968l4.04799,0l24.24119,-27.6265l27.76686,0l-33.55482,38.17681l33.55482,38.17681l-27.77484,0l-24.24111,-27.73793l-4.0401,0l0,27.73793l-20.91641,0l0,-76.35363l20.91641,0l0,27.6265z" id="svg_9"/>
   <path stroke="null" fill-rule="evenodd" fill="#0059a1" d="m125.31329,355.12968l31.04408,0l0,-27.6265l20.9165,0l0,76.35363l-20.9165,0l0,-27.73793l-31.04408,0l0,27.73793l-20.91641,0l0,-76.35363l20.91641,0l0,27.6265z" id="svg_8"/>
   <path stroke="null" fill-rule="evenodd" fill="#0059a1" d="m70.60704,367.98701l-53.75908,0l0,-21.10053l53.76127,0c-0.43686,-2.25791 -1.07959,-4.45575 -2.02641,-6.31004c-1.29083,-2.52797 -3.01447,-4.8358 -5.4056,-6.35699c-2.49714,-1.58828 -5.26317,-2.48598 -8.16549,-2.8877c-3.83106,-0.5306 -7.69731,-0.77449 -11.56268,-0.77449c-1.93892,0 -3.87862,0.04227 -5.81657,0.10774c-2.22966,0.07464 -4.458,0.20468 -6.68239,0.37465c-2.34936,0.17986 -4.69336,0.42969 -7.02947,0.74211c-2.34585,0.31377 -4.68415,0.68393 -7.01148,1.11713l-7.12715,1.32775l0,-21.71459l4.34883,-0.64598c5.14523,-0.76424 10.3124,-1.37244 15.49238,-1.82732c4.77349,-0.41926 9.57725,-0.69337 14.36917,-0.69337c5.54953,0 11.09195,0.44363 16.56802,1.3719c5.83992,0.99051 11.30011,3.16136 16.1452,6.65538c5.29968,3.82182 9.04184,9.19235 11.64105,15.2165c3.25563,7.54543 4.09635,16.56682 4.09635,24.73619c0,8.16884 -0.84072,17.19076 -4.09635,24.73565c-2.59964,6.02424 -6.34136,11.39477 -11.64105,15.21659c-4.8451,3.49402 -10.30529,5.66532 -16.1452,6.65583c-5.47607,0.92827 -11.01849,1.37146 -16.56802,1.37146c-4.79192,0 -9.59568,-0.27366 -14.36917,-0.69292c-5.17998,-0.45496 -10.34715,-1.06353 -15.49238,-1.82777l-4.34883,-0.64607l0,-21.71054l0.00044,-0.00899l7.12802,1.3291c2.32645,0.43374 4.66432,0.80435 7.00929,1.11767c2.33611,0.31197 4.68011,0.5618 7.02991,0.74166c2.22483,0.16997 4.45317,0.29983 6.68283,0.37465c1.93795,0.06565 3.87766,0.10774 5.81657,0.10774c3.8623,0 7.72679,-0.22546 11.55873,-0.72539c2.90056,-0.37825 5.64589,-1.27235 8.14391,-2.84309c2.40386,-1.51166 4.13856,-3.77667 5.44299,-6.30689c0.9398,-1.82228 1.57771,-3.99584 2.01237,-6.23063l0,0.0036z" id="svg_7"/>
   <path stroke="null" fill-rule="evenodd" fill="#ffffff" d="m321.52419,178.29012l-64.20741,-33.97405l-62.94826,32.68416l0.41974,77.62409l63.36792,32.46904l62.94826,-32.46904l0.41974,-76.3342z" id="svg_6"/>
   <path stroke="null" fill-rule="evenodd" fill="#0059a1" d="m255.25912,140.35945l-67.21837,33.16745l0,85.01025l69.73228,35.41403l69.73271,-35.41403l0,-85.01025c-23.24471,-11.46815 -46.48932,-22.93639 -69.73228,-34.40814l-2.51434,1.24069zm43.24256,119.67767l0,-68.17247l-33.57992,-16.56952l-12.9424,6.57291l0,27.21129l-35.17474,17.35669l0,33.47942l-17.16723,-8.7185l0,-70.23424l58.13564,-28.68598l58.13607,28.68598l0,70.23424l-17.40742,8.84017zm-70.10051,5.76776l0,-26.21044l23.32913,11.51096l0,26.54723l-23.32913,-11.84775zm34.92577,12.09614l0,-26.79562l23.57819,-11.63408l0,26.45523l-23.57819,11.97447zm0.24897,-68.57554l0,-21.53607l23.32922,11.5115l0,21.53607l-23.32922,-11.5115zm15.54564,20.82867l-21.59311,10.65481l-21.59267,-10.65481l21.59267,-10.6549l21.59311,10.6549z" id="svg_5"/>
  </g>
 </g>
</svg>